<svg xmlns="http://www.w3.org/2000/svg" width="26" height="26" id="weather"><path style="text-indent:0;text-align:start;line-height:normal;text-transform:none;block-progression:tb;marker:none;-inkscape-font-specification:Sans" d="M13 0C5.827 0 0 5.82 0 13s5.827 13 13 13 13-5.82 13-13S20.173 0 13 0zm0 .75C19.763.75 25.25 6.231 25.25 13S19.763 25.219 13 25.219.75 19.769.75 13C.75 6.231 6.237.75 13 .75zm-1.406 7.719c-.156 0-.301.131-.344.281l-1.719 5.938a.368.368 0 0 0 .063.312.374.374 0 0 0 .281.156h2.281l-1.031 4.969a.377.377 0 0 0 .344.438.35.35 0 0 0 .281-.157l5.406-7.75a.375.375 0 0 0 .032-.375.354.354 0 0 0-.313-.187h-2.813l2.126-3.063a.377.377 0 0 0 .03-.375.355.355 0 0 0-.312-.187h-4.312zm.25.719h3.406l-2.156 3.062c-.074.107-.06.259 0 .375a.355.355 0 0 0 .312.188h2.813l-4.063 5.812.75-3.75a.39.39 0 0 0-.062-.313.365.365 0 0 0-.281-.124h-2.22l1.5-5.25z" color="#000" font-family="Sans" font-weight="400" overflow="visible"></path></svg>